<svg xmlns="http://www.w3.org/2000/svg" width="41" height="41" viewBox="0 0 41 41">
  <g id="Icon_ionic-ios-close-circle-outline" data-name="Icon ionic-ios-close-circle-outline" transform="translate(-2.875 -2.875)">
    <path id="Path_33765" data-name="Path 33765" d="M27.313,25.142l-5.067-5.067,5.067-5.067a1.537,1.537,0,0,0-2.173-2.173L20.073,17.9l-5.067-5.067a1.537,1.537,0,0,0-2.173,2.173L17.9,20.075l-5.067,5.067a1.486,1.486,0,0,0,0,2.173,1.526,1.526,0,0,0,2.173,0l5.067-5.067,5.067,5.067a1.544,1.544,0,0,0,2.173,0A1.526,1.526,0,0,0,27.313,25.142Z" transform="translate(3.302 3.3)" stroke="#fff" stroke-width="1"/>
    <path id="Path_33766" data-name="Path 33766" d="M23.375,6.067a17.3,17.3,0,1,1-12.24,5.067,17.193,17.193,0,0,1,12.24-5.067m0-2.692a20,20,0,1,0,20,20,20,20,0,0,0-20-20Z" stroke="#fff" stroke-width="1"/>
  </g>
</svg>
