<svg xmlns="http://www.w3.org/2000/svg" width="30" height="30" viewBox="0 0 30 30">
  <g id="Icon_feather-settings" data-name="Icon feather-settings" transform="translate(3 3)">
    <path id="Path_38708" data-name="Path 38708" d="M22.193,17.846A4.346,4.346,0,1,1,17.846,13.5,4.346,4.346,0,0,1,22.193,17.846Z" transform="translate(-5.846 -5.208)" fill="none" stroke="#000" stroke-linecap="round" stroke-linejoin="round" stroke-width="1.7"/>
    <g id="Group_26956" data-name="Group 26956">
      <path id="Path_38709" data-name="Path 38709" d="M21.573,16.773a1.8,1.8,0,0,0,.36,1.985l.065.065a2.183,2.183,0,1,1-3.087,3.087l-.065-.065a1.815,1.815,0,0,0-3.076,1.287v.185a2.182,2.182,0,0,1-4.364,0v-.1a1.8,1.8,0,0,0-1.178-1.647,1.8,1.8,0,0,0-1.985.36L8.176,22a2.183,2.183,0,1,1-3.087-3.087l.065-.065a1.815,1.815,0,0,0-1.287-3.076H3.682a2.182,2.182,0,0,1,0-4.364h.1a1.8,1.8,0,0,0,1.647-1.178,1.8,1.8,0,0,0-.36-1.985L5,8.176A2.183,2.183,0,1,1,8.089,5.089l.065.065a1.8,1.8,0,0,0,1.985.36h.087a1.8,1.8,0,0,0,1.091-1.647V3.682a2.182,2.182,0,1,1,4.364,0v.1a1.815,1.815,0,0,0,3.076,1.287L18.824,5a2.183,2.183,0,1,1,3.087,3.087l-.065.065a1.8,1.8,0,0,0-.36,1.985v.087a1.8,1.8,0,0,0,1.647,1.091h.185a2.182,2.182,0,1,1,0,4.364h-.1a1.8,1.8,0,0,0-1.647,1.091Z" transform="translate(-1.5 -1.5)" fill="none" stroke="#000" stroke-linecap="round" stroke-linejoin="round" stroke-width="1.7"/>
      <rect id="Rectangle_7461" data-name="Rectangle 7461" width="30" height="30" transform="translate(-3 -3)" fill="none"/>
    </g>
  </g>
</svg>
