<svg id="Group_25583" data-name="Group 25583" xmlns="http://www.w3.org/2000/svg" xmlns:xlink="http://www.w3.org/1999/xlink" width="320" height="80" viewBox="0 0 320 80">
  <defs>
    <linearGradient id="linear-gradient" y1="0.5" x2="1" y2="0.5" gradientUnits="objectBoundingBox">
      <stop offset="0" stop-color="#ff9a35"/>
      <stop offset="0.124" stop-color="#ff903a"/>
      <stop offset="0.335" stop-color="#ff7549"/>
      <stop offset="0.605" stop-color="#ff4a61"/>
      <stop offset="0.922" stop-color="#ff0f82"/>
      <stop offset="1" stop-color="#ff008b"/>
    </linearGradient>
  </defs>
  <rect id="Rectangle_6743" data-name="Rectangle 6743" width="320" height="80" fill="none"/>
  <g id="Group_24613" data-name="Group 24613" transform="translate(2097.797 639.667)">
    <g id="Group_24612" data-name="Group 24612" transform="translate(-2068.797 -611.994)">
      <g id="Group_24610" data-name="Group 24610" transform="translate(53.393 6.694)">
        <path id="Path_28543" data-name="Path 28543" d="M1234.169,607.041l-.023-9.857-4.834,8.12H1227.6l-4.811-7.909v9.646h-3.567V590.613h3.145l6.149,10.209,6.055-10.209h3.121l.047,16.428Z" transform="translate(-1219.22 -590.331)"/>
        <path id="Path_28544" data-name="Path 28544" d="M1258.176,598.617c0-4.881,3.8-8.5,8.988-8.5,5.164,0,8.989,3.591,8.989,8.5s-3.825,8.5-8.989,8.5C1261.978,607.113,1258.176,603.5,1258.176,598.617Zm14.128,0a5.141,5.141,0,1,0-5.14,5.258A5.012,5.012,0,0,0,1272.3,598.617Z" transform="translate(-1235.86 -590.121)"/>
        <path id="Path_28545" data-name="Path 28545" d="M1297.8,593.711h-5.257v-3.1h14.316v3.1H1301.6v13.331h-3.8Z" transform="translate(-1250.541 -590.331)"/>
        <path id="Path_28546" data-name="Path 28546" d="M1322.734,590.613h3.8v16.428h-3.8Z" transform="translate(-1263.437 -590.331)"/>
        <path id="Path_28547" data-name="Path 28547" d="M1336.006,598.617c0-4.881,3.8-8.5,8.989-8.5,5.163,0,8.989,3.591,8.989,8.5s-3.826,8.5-8.989,8.5C1339.808,607.113,1336.006,603.5,1336.006,598.617Zm14.129,0a5.141,5.141,0,1,0-5.14,5.258A5.012,5.012,0,0,0,1350.135,598.617Z" transform="translate(-1269.106 -590.121)"/>
        <path id="Path_28548" data-name="Path 28548" d="M1389.088,590.613v16.428h-3.122l-8.19-9.974v9.974h-3.755V590.613h3.145l8.167,9.974v-9.974Z" transform="translate(-1285.345 -590.331)"/>
        <path id="Path_28549" data-name="Path 28549" d="M1417.967,603.521h-7.627l-1.455,3.521h-3.9l7.323-16.428h3.755l7.346,16.428h-3.989Zm-1.2-2.887-2.605-6.29-2.605,6.29Z" transform="translate(-1298.573 -590.331)"/>
        <path id="Path_28550" data-name="Path 28550" d="M1456.84,602.559c0,2.84-2.252,4.482-6.572,4.482h-8.5V590.613h8.027c4.107,0,6.22,1.713,6.22,4.271a3.95,3.95,0,0,1-2.183,3.615A4.057,4.057,0,0,1,1456.84,602.559Zm-11.289-9.083v3.872h3.778c1.854,0,2.863-.656,2.863-1.948s-1.009-1.925-2.863-1.925Zm7.463,8.684c0-1.385-1.056-2.042-3.027-2.042h-4.436v4.06h4.436C1451.959,604.178,1453.015,603.568,1453.015,602.16Z" transform="translate(-1314.286 -590.331)"/>
        <path id="Path_28551" data-name="Path 28551" d="M1474.75,590.613h3.8v13.331h8.237v3.1h-12.04Z" transform="translate(-1328.372 -590.331)"/>
        <path id="Path_28552" data-name="Path 28552" d="M1513.85,603.991v3.051h-12.72V590.613h12.415v3.051h-8.636v3.568h7.627v2.957h-7.627v3.8Z" transform="translate(-1339.641 -590.331)"/>
        <path id="Path_28553" data-name="Path 28553" d="M1528.656,613.924a2.277,2.277,0,0,1,4.553,0,2.277,2.277,0,1,1-4.553,0Z" transform="translate(-1351.399 -599.327)"/>
        <path id="Path_28554" data-name="Path 28554" d="M1543.035,590.613h3.8v16.428h-3.8Z" transform="translate(-1357.541 -590.331)"/>
        <path id="Path_28555" data-name="Path 28555" d="M1556.307,598.617c0-4.881,3.8-8.5,8.988-8.5,5.163,0,8.989,3.591,8.989,8.5s-3.825,8.5-8.989,8.5C1560.109,607.113,1556.307,603.5,1556.307,598.617Zm14.129,0a5.141,5.141,0,1,0-5.14,5.258A5.012,5.012,0,0,0,1570.436,598.617Z" transform="translate(-1363.21 -590.121)"/>
      </g>
      <g id="Group_24611" data-name="Group 24611" transform="translate(-2 -1.541)">
        <path id="Path_28556" data-name="Path 28556" d="M1404.963,453.237l-14.454-31.483a.86.86,0,0,0-1.558,0l-14.457,31.5a.839.839,0,0,0,.06.809.859.859,0,0,0,.719.389h14.219a.858.858,0,0,0,.7-.356.839.839,0,0,0,.111-.769c-.02-.058-.037-.109-.052-.155a3.032,3.032,0,0,0-.123-.329l-.559-1.218q-2.057-4.48-4.121-8.953a.777.777,0,0,1-.058-.139.392.392,0,0,1,.028-.073q1.425-3.07,2.837-6.155l1.124-2.446c.118-.256.235-.511.354-.767,2.43,5.285,9.428,20.5,9.428,20.5l.016.033a1.532,1.532,0,0,0,1.225.859c.585.018,1.173.023,1.755.023.357,0,.713,0,1.063,0l.621,0a1.772,1.772,0,0,0,.4-.054l.1-.021a.854.854,0,0,0,.6-.441A.838.838,0,0,0,1404.963,453.237Z" transform="translate(-1359.685 -421.04)" fill="url(#linear-gradient)"/>
        <path id="Path_28557" data-name="Path 28557" d="M1338.436,425.048c-.341-.724-.674-1.456-1.007-2.188q-.268-.59-.538-1.178c-.075-.164-.157-.321-.251-.5-.042-.08-.086-.165-.134-.258a.844.844,0,0,0-.781-.465.857.857,0,0,0-.761.5l-14.546,31.69a.84.84,0,0,0-.016.665.852.852,0,0,0,.473.471l.044.019a1.02,1.02,0,0,0,.445.109l.706,0c.385,0,.775,0,1.168,0,.607,0,1.221,0,1.831-.019a1.43,1.43,0,0,0,1.164-.9c1.941-4.2,3.906-8.48,5.64-12.258l1.955-4.263q2.3-5,4.594-10A1.541,1.541,0,0,0,1338.436,425.048Z" transform="translate(-1320.341 -420.459)" fill="url(#linear-gradient)"/>
      </g>
    </g>
  </g>
</svg>
