<svg id="Group_25583" data-name="Group 25583" xmlns="http://www.w3.org/2000/svg" width="436" height="109" viewBox="0 0 436 109">
  <rect id="Rectangle_6743" data-name="Rectangle 6743" width="436" height="109" fill="none"/>
  <g id="Group_24613" data-name="Group 24613" transform="translate(36.787 35.605)">
    <g id="Group_24612" data-name="Group 24612" transform="translate(0 0)">
      <g id="Group_24610" data-name="Group 24610" transform="translate(75.473 11.221)">
        <path id="Path_28543" data-name="Path 28543" d="M1239.589,613l-.032-13.43-6.587,11.064h-2.335l-6.555-10.776V613h-4.86V590.613h4.285l8.378,13.91,8.25-13.91h4.253l.064,22.384Z" transform="translate(-1219.22 -590.229)" fill="#fff"/>
        <path id="Path_28544" data-name="Path 28544" d="M1258.176,601.7c0-6.651,5.18-11.575,12.247-11.575,7.035,0,12.247,4.893,12.247,11.575s-5.212,11.576-12.247,11.576C1263.356,613.272,1258.176,608.349,1258.176,601.7Zm19.25,0a7,7,0,1,0-7,7.163A6.829,6.829,0,0,0,1277.426,601.7Z" transform="translate(-1227.771 -590.121)" fill="#fff"/>
        <path id="Path_28545" data-name="Path 28545" d="M1299.707,594.834h-7.163v-4.221h19.505v4.221h-7.163V613h-5.18Z" transform="translate(-1235.315 -590.229)" fill="#fff"/>
        <path id="Path_28546" data-name="Path 28546" d="M1322.734,590.613h5.181V613h-5.181Z" transform="translate(-1241.942 -590.229)" fill="#fff"/>
        <path id="Path_28547" data-name="Path 28547" d="M1336.006,601.7c0-6.651,5.181-11.575,12.247-11.575,7.035,0,12.248,4.893,12.248,11.575s-5.212,11.576-12.248,11.576C1341.187,613.272,1336.006,608.349,1336.006,601.7Zm19.25,0a7,7,0,1,0-7,7.163A6.829,6.829,0,0,0,1355.256,601.7Z" transform="translate(-1244.855 -590.121)" fill="#fff"/>
        <path id="Path_28548" data-name="Path 28548" d="M1394.55,590.613V613H1390.3l-11.159-13.59V613h-5.116V590.613h4.285l11.128,13.59v-13.59Z" transform="translate(-1253.199 -590.229)" fill="#fff"/>
        <path id="Path_28549" data-name="Path 28549" d="M1422.672,608.2h-10.392L1410.3,613h-5.309l9.977-22.384h5.116L1430.09,613h-5.435Zm-1.63-3.933-3.55-8.57-3.55,8.57Z" transform="translate(-1259.997 -590.229)" fill="#fff"/>
        <path id="Path_28550" data-name="Path 28550" d="M1462.3,606.889c0,3.869-3.069,6.107-8.954,6.107h-11.575V590.613h10.936c5.6,0,8.475,2.334,8.475,5.819a5.382,5.382,0,0,1-2.974,4.925A5.528,5.528,0,0,1,1462.3,606.889Zm-15.381-12.375v5.276h5.148c2.526,0,3.9-.895,3.9-2.654s-1.375-2.622-3.9-2.622Zm10.168,11.832c0-1.886-1.438-2.782-4.125-2.782h-6.044V609.1h6.044C1455.652,609.1,1457.09,608.265,1457.09,606.346Z" transform="translate(-1268.071 -590.229)" fill="#fff"/>
        <path id="Path_28551" data-name="Path 28551" d="M1474.75,590.613h5.181v18.163h11.224V613h-16.4Z" transform="translate(-1275.31 -590.229)" fill="#fff"/>
        <path id="Path_28552" data-name="Path 28552" d="M1518.461,608.84V613H1501.13V590.613h16.916v4.157h-11.767v4.861h10.391v4.029h-10.391v5.18Z" transform="translate(-1281.101 -590.229)" fill="#fff"/>
        <path id="Path_28553" data-name="Path 28553" d="M1528.656,614.741a3.1,3.1,0,0,1,6.2,0,3.1,3.1,0,1,1-6.2,0Z" transform="translate(-1287.143 -594.852)" fill="#fff"/>
        <path id="Path_28554" data-name="Path 28554" d="M1543.035,590.613h5.181V613h-5.181Z" transform="translate(-1290.299 -590.229)" fill="#fff"/>
        <path id="Path_28555" data-name="Path 28555" d="M1556.307,601.7c0-6.651,5.18-11.575,12.247-11.575,7.035,0,12.247,4.893,12.247,11.575s-5.211,11.576-12.247,11.576C1561.487,613.272,1556.307,608.349,1556.307,601.7Zm19.25,0a7.005,7.005,0,1,0-7,7.163A6.829,6.829,0,0,0,1575.557,601.7Z" transform="translate(-1293.212 -590.121)" fill="#fff"/>
      </g>
      <g id="Group_24611" data-name="Group 24611">
        <path id="Path_28556" data-name="Path 28556" d="M1416.035,464.829l-19.693-42.9a1.171,1.171,0,0,0-2.123,0l-19.7,42.912a1.144,1.144,0,0,0,.081,1.1,1.17,1.17,0,0,0,.98.53h19.374a1.169,1.169,0,0,0,.95-.485,1.142,1.142,0,0,0,.151-1.048c-.027-.079-.05-.149-.071-.211a4.145,4.145,0,0,0-.168-.449l-.762-1.66q-2.8-6.1-5.615-12.2a1.055,1.055,0,0,1-.079-.19.524.524,0,0,1,.038-.1q1.942-4.183,3.865-8.386l1.531-3.332c.16-.348.321-.7.483-1.045,3.31,7.2,12.845,27.933,12.845,27.933l.022.044a2.087,2.087,0,0,0,1.669,1.17c.8.024,1.6.031,2.391.031.487,0,.971,0,1.449-.005l.846,0a2.413,2.413,0,0,0,.548-.074c.042-.009.087-.019.136-.028a1.164,1.164,0,0,0,.823-.6A1.142,1.142,0,0,0,1416.035,464.829Z" transform="translate(-1354.345 -420.961)" fill="#fff"/>
        <path id="Path_28557" data-name="Path 28557" d="M1344.995,426.712c-.464-.986-.918-1.984-1.372-2.981q-.365-.8-.733-1.605c-.1-.223-.214-.438-.342-.681-.057-.109-.117-.225-.182-.352a1.15,1.15,0,0,0-1.065-.633,1.168,1.168,0,0,0-1.037.676l-19.819,43.177a1.144,1.144,0,0,0-.022.906,1.161,1.161,0,0,0,.645.642l.06.027a1.389,1.389,0,0,0,.607.148l.961,0c.524,0,1.056.005,1.591.005.828,0,1.664-.006,2.5-.026a1.948,1.948,0,0,0,1.585-1.233c2.644-5.719,5.322-11.554,7.685-16.7l2.663-5.808q3.127-6.818,6.259-13.63A2.1,2.1,0,0,0,1344.995,426.712Z" transform="translate(-1320.341 -420.459)" fill="#fff"/>
      </g>
    </g>
  </g>
</svg>
